<svg width="600px" height="167px" viewBox="0 0 600 167" version="1.1" xmlns="http://www.w3.org/2000/svg" xmlns:xlink="http://www.w3.org/1999/xlink">
  <title>Logo-Full-White</title>
  <g id="Logo-Kit" stroke="none" stroke-width="1" fill="none" fill-rule="evenodd">
    <g id="Logo-Full-White" transform="translate(-100.000000, -317.000000)">
      <g transform="translate(100.000000, 317.000000)">
        <g id="Group-7" transform="translate(203.702930, 52.979822)" fill="#FFFFFF">
          <path d="M20.0989464,9.98651918 C21.2655639,8.83922399 22.9434767,8.26918424 25.1110807,8.26918424 C26.3065035,8.26918424 27.2858861,8.44957656 28.0492284,8.8247926 C28.8053693,9.20000864 29.5183022,9.71232285 30.166423,10.3545195 L35.9563023,4.65412202 C34.4872284,3.16047356 32.9101344,2.00596267 31.2250203,1.20502074 C29.5471076,0.404078811 27.5019264,0 25.1110807,0 C22.0145035,0 19.2851948,0.642196682 16.9231545,1.92659004 C14.5539128,3.21098341 12.7103692,4.97882821 11.3709195,7.22290875 C10.0458726,9.46698928 9.37614771,12.0646388 9.37614771,15.0014259 L9.37614771,20.0596267 L0,20.0596267 L0,28.0834774 L9.37614771,28.0834774 L9.37614771,58.5697805 L18.3490203,58.5697805 L18.3490203,28.0834774 L30.166423,28.0834774 L30.166423,20.0596267 L18.3490203,20.0596267 L18.3490203,14.9292689 C18.3490203,12.7862081 18.932329,11.1410301 20.0989464,9.98651918" id="Fill-189"></path>
          <path d="M44.5165379,32.8595446 C45.4383097,31.1205626 46.748954,29.7640123 48.4268668,28.8043251 C50.1119809,27.8446379 52.0995514,27.3611865 54.3823769,27.3611865 C56.5571823,27.3611865 58.3935246,27.7869124 59.8842024,28.6455798 C61.3820816,29.4970316 62.5342964,30.7309151 63.3480481,32.3400147 C63.8017326,33.2275449 64.1185917,34.259389 64.356236,35.3850372 L43.5947661,35.3850372 C43.825209,34.4902912 44.1060614,33.6244081 44.5165379,32.8595446 M70.8086387,28.5662072 C69.2099407,25.67993 66.9991286,23.399771 64.1978065,21.7473773 C61.4036856,20.0805522 58.1846856,19.2579632 54.5480077,19.2579632 C50.7961084,19.2579632 47.3826721,20.1382777 44.3149003,21.8989068 C41.2399271,23.6739673 38.8058734,26.0695774 37.0127392,29.0929528 C35.2196049,32.1091125 34.3266385,35.5149196 34.3266385,39.3175899 C34.3266385,43.1130444 35.2340076,46.5404986 37.0559472,49.5855211 C38.8778868,52.6377592 41.3551486,55.0261536 44.4733298,56.7651357 C47.5987124,58.5113334 51.1201688,59.3772166 55.0304977,59.3772166 C58.0766655,59.3772166 60.9572024,58.8216082 63.6721085,57.6887444 C66.3942159,56.570312 68.6986454,54.9107026 70.5997998,52.7171319 L64.8963367,47.0239501 C63.7009139,48.3516376 62.2462427,49.376266 60.5395246,50.0689725 C58.8184038,50.7616791 56.9676588,51.1080323 54.9512829,51.1080323 C52.6108467,51.1080323 50.5512628,50.6173652 48.7581285,49.6288152 C46.9649943,48.6402653 45.5751352,47.2332052 44.5957526,45.4148505 C44.1276654,44.5489673 43.7892023,43.6037115 43.5443567,42.6079459 L72.7241958,42.6079459 C72.8826253,41.7997883 73.0050481,41.0710033 73.0914642,40.3999438 C73.170679,39.7288844 73.2138871,39.0722563 73.2138871,38.4300596 C73.2138871,34.7428405 72.4145381,31.4524844 70.8086387,28.5662072" id="Fill-190"></path>
          <path d="M106.269489,47.7419115 C104.231509,49.9354822 101.559811,51.0322675 98.2399919,51.0322675 C96.0651866,51.0322675 94.1496295,50.5416004 92.4933208,49.5458348 C90.8298107,48.5572848 89.5335691,47.1790875 88.5829919,45.4184583 C87.6252133,43.6506135 87.1571261,41.6157881 87.1571261,39.313982 C87.1571261,37.0193916 87.6252133,34.9845662 88.5829919,33.2167214 C89.5335691,31.4488766 90.8298107,30.0778949 92.4933208,29.089345 C94.1496295,28.0935793 96.0651866,27.6029122 98.2399919,27.6029122 C100.465207,27.6029122 102.41677,28.0935793 104.065878,29.089345 C105.729388,30.0778949 107.018428,31.4488766 107.9402,33.2167214 C108.861972,34.9845662 109.330059,37.0193916 109.330059,39.313982 C109.330059,42.7414362 108.307469,45.5483408 106.269489,47.7419115 L106.269489,47.7419115 Z M108.761153,20.062513 L108.761153,24.5145956 C107.61614,23.1941237 106.327099,22.0179658 104.7212,21.1376512 C102.41677,19.8893363 99.7666765,19.261571 96.7781194,19.261571 C93.235059,19.261571 90.0448644,20.156317 87.2003341,21.9458088 C84.3414012,23.7353007 82.0873811,26.1453422 80.423871,29.1687176 C78.7747636,32.192093 77.9394079,35.5979001 77.9394079,39.4005703 C77.9394079,43.1382993 78.7747636,46.5224594 80.423871,49.5458348 C82.0873811,52.5692102 84.3414012,54.9648203 87.2003341,56.7254494 C90.0448644,58.4932942 93.235059,59.3736087 96.7781194,59.3736087 C99.7666765,59.3736087 102.431173,58.7458434 104.764408,57.4975285 C106.363106,56.6316454 107.630542,55.4771345 108.761153,54.1855254 L108.761153,58.5726668 L117.726824,58.5726668 L117.726824,20.062513 L108.761153,20.062513 Z" id="Fill-191"></path>
          <polygon id="Fill-192" points="151.967047 20.0632345 142.590899 20.0632345 142.590899 4.00831749 133.625228 4.00831749 133.625228 20.0632345 124.241879 20.0632345 124.241879 28.0798695 133.625228 28.0798695 133.625228 58.5733884 142.590899 58.5733884 142.590899 28.0798695 151.967047 28.0798695"></polygon>
          <path d="M174.548296,59.3757734 C171.235678,59.3757734 168.290329,58.6542041 165.697846,57.2110655 C163.119766,55.7679269 161.110591,53.7763956 159.677524,51.229256 C158.230054,48.6965477 157.50992,45.7597606 157.50992,42.4477575 L157.50992,20.0646777 L166.482792,20.0646777 L166.482792,42.0508944 C166.482792,43.9125432 166.79245,45.5072114 167.418967,46.8204675 C168.045484,48.126508 168.967255,49.1294893 170.191484,49.8294115 C171.408511,50.522118 172.870383,50.8684713 174.548296,50.8684713 C177.155182,50.8684713 179.157155,50.1108235 180.539813,48.5883123 C181.92247,47.0585854 182.621001,44.8794461 182.621001,42.0508944 L182.621001,20.0646777 L191.586672,20.0646777 L191.586672,42.4477575 C191.586672,45.8174862 190.873739,48.7687046 189.426269,51.3158443 C187.986001,53.8485525 185.991229,55.8328681 183.434752,57.247144 C180.885477,58.6686355 177.918524,59.3757734 174.548296,59.3757734" id="Fill-193"></path>
          <path d="M225.098118,20.3027955 C223.521024,19.6028733 221.749494,19.25652 219.79793,19.25652 C215.340299,19.25652 212.013279,20.7645999 209.809669,23.7879753 C209.730454,23.8962107 209.680044,24.0260932 209.608031,24.1343286 L209.608031,20.0646777 L200.64236,20.0646777 L200.64236,58.5748315 L209.608031,58.5748315 L209.608031,37.1514388 C209.608031,33.83222 210.421783,31.4005315 212.049286,29.8491574 C213.683991,28.2977834 215.743575,27.5257043 218.249642,27.5257043 C219.387454,27.5257043 220.395642,27.6772338 221.267004,28.00194 C222.138367,28.3194305 222.923313,28.8606075 223.629044,29.6110396 L229.498138,23.6725242 C228.137085,22.1211502 226.675212,20.9955021 225.098118,20.3027955" id="Fill-194"></path>
          <path d="M242.953847,32.8595446 C243.875618,31.1205626 245.179061,29.7640123 246.864175,28.8043251 C248.54929,27.8446379 250.53686,27.3611865 252.812484,27.3611865 C254.98729,27.3611865 256.823632,27.7869124 258.321511,28.6455798 C259.812189,29.4970316 260.964404,30.7309151 261.778155,32.3400147 C262.239041,33.2275449 262.5559,34.259389 262.786343,35.3850372 L242.032075,35.3850372 C242.255316,34.4902912 242.536169,33.6244081 242.953847,32.8595446 M269.238746,28.5662072 C267.640048,25.67993 265.436437,23.399771 262.635115,21.7473773 C259.840994,20.0805522 256.614793,19.2579632 252.978115,19.2579632 C249.226216,19.2579632 245.81278,20.1382777 242.745008,21.8989068 C239.677236,23.6739673 237.243182,26.0695774 235.450048,29.0929528 C233.656914,32.1091125 232.756746,35.5149196 232.756746,39.3175899 C232.756746,43.1130444 233.671316,46.5404986 235.493256,49.5855211 C237.315196,52.6377592 239.785256,55.0261536 242.910639,56.7651357 C246.036021,58.5113334 249.550276,59.3772166 253.467806,59.3772166 C256.513974,59.3772166 259.38731,58.8216082 262.109417,57.6887444 C264.824323,56.570312 267.135954,54.9107026 269.037109,52.7171319 L263.333645,47.0239501 C262.138223,48.3516376 260.683551,49.376266 258.969632,50.0689725 C257.255712,50.7616791 255.397766,51.1080323 253.38139,51.1080323 C251.048155,51.1080323 248.98137,50.6173652 247.188236,49.6288152 C245.395102,48.6402653 244.005243,47.2332052 243.033061,45.4148505 C242.564974,44.5489673 242.226511,43.6037115 241.981665,42.6079459 L271.161505,42.6079459 C271.319934,41.7997883 271.442357,41.0710033 271.528773,40.3999438 C271.607988,39.7288844 271.643994,39.0722563 271.643994,38.4300596 C271.643994,34.7428405 270.844645,31.4524844 269.238746,28.5662072" id="Fill-195"></path>
          <path d="M285.670049,59.3757734 C283.934525,59.3757734 282.50866,58.8057337 281.38525,57.6512228 C280.276243,56.5039276 279.72174,55.0968674 279.72174,53.4444737 C279.72174,51.7271388 280.276243,50.3056473 281.38525,49.1872148 C282.50866,48.0687824 283.934525,47.4987427 285.670049,47.4987427 C287.405572,47.4987427 288.831438,48.0687824 289.954848,49.1872148 C291.063854,50.3056473 291.618358,51.7271388 291.618358,53.4444737 C291.618358,55.0968674 291.063854,56.5039276 289.954848,57.6512228 C288.831438,58.8057337 287.405572,59.3757734 285.670049,59.3757734" id="Fill-196"></path>
          <path d="M318.567941,9.98651918 C319.734559,8.83922399 321.412471,8.26918424 323.580075,8.26918424 C324.775498,8.26918424 325.754881,8.44957656 326.518223,8.8247926 C327.274364,9.20000864 327.987297,9.71232285 328.628216,10.3545195 L334.418096,4.65412202 C332.956223,3.16047356 331.379129,2.00596267 329.694015,1.20502074 C328.008901,0.404078811 325.970921,0 323.580075,0 C320.483498,0 317.754189,0.642196682 315.392149,1.92659004 C313.015706,3.21098341 311.179364,4.97882821 309.839914,7.22290875 C308.514867,9.46698928 307.845142,12.0646388 307.845142,15.0014259 L307.845142,20.0596267 L298.468995,20.0596267 L298.468995,28.0834774 L307.845142,28.0834774 L307.845142,58.5697805 L316.810814,58.5697805 L316.810814,28.0834774 L328.628216,28.0834774 L328.628216,20.0596267 L316.810814,20.0596267 L316.810814,14.9292689 C316.810814,12.7862081 317.401324,11.1410301 318.567941,9.98651918" id="Fill-197"></path>
          <path d="M394.266291,25.9959774 C392.905238,23.8529165 391.083298,22.2005228 388.800472,21.0243648 C386.517647,19.8409912 383.96117,19.25652 381.138244,19.25652 C378.365727,19.25652 375.823654,19.8554226 373.512023,21.0604433 C371.337217,22.2005228 369.565687,23.7807596 368.139821,25.7506438 C366.850781,23.7446811 365.172868,22.150013 363.041271,21.0243648 C360.808855,19.8409912 358.309989,19.25652 355.537472,19.25652 C352.764955,19.25652 350.26609,19.8554226 348.033673,21.0604433 C346.557398,21.8613852 345.361975,22.9437392 344.288975,24.1559756 L344.288975,20.0646777 L335.316103,20.0646777 L335.316103,58.5748315 L344.288975,58.5748315 L344.288975,35.6289276 C344.288975,33.9188083 344.663445,32.4612383 345.433989,31.2562176 C346.19013,30.0511969 347.21272,29.1275881 348.487358,28.4853915 C349.761996,27.8431948 351.216667,27.5257043 352.84417,27.5257043 C355.235016,27.5257043 357.24419,28.2328422 358.878895,29.647118 C360.5136,31.0613939 361.327351,33.0601409 361.327351,35.6289276 L361.327351,58.5748315 L370.293023,58.5748315 L370.293023,35.6289276 C370.293023,33.9188083 370.674694,32.4612383 371.438036,31.2562176 C372.201378,30.0511969 373.23117,29.1275881 374.534613,28.4853915 C375.838056,27.8431948 377.278325,27.5257043 378.848217,27.5257043 C381.246264,27.5257043 383.255439,28.2328422 384.882942,29.647118 C386.517647,31.0613939 387.331399,33.0601409 387.331399,35.6289276 L387.331399,58.5748315 L396.29707,58.5748315 L396.29707,33.6951218 C396.29707,30.7006092 395.620144,28.1390382 394.266291,25.9959774" id="Fill-198"></path>
        </g>
        <g id="Group-6" transform="translate(-0.000000, 0.000000)">
          <path d="M83.3339334,0 C129.357712,0 166.667867,37.3845057 166.667867,83.4927843 C166.667867,129.615494 129.357712,167 83.3339334,167 C37.3101546,167 0,129.615494 0,83.4927843 C0,37.3845057 37.3101546,0 83.3339334,0" id="Fill-199" fill="#FFFFFF"></path>
          <path d="M120.732665,52.0532881 C119.602054,58.3958823 113.588933,62.6531412 107.323765,61.5563559 C101.073,60.4667862 96.9106241,54.4705453 98.0412349,48.1495982 C99.1718456,41.807004 105.184966,37.5497451 111.457336,38.6537461 C117.700899,39.7433158 121.856074,45.732341 120.732665,52.0532881 M55.2076507,132.060893 C48.9640869,130.971323 44.8089124,124.967866 45.9323218,118.646919 C47.0701339,112.311541 53.0760534,108.054282 59.3484225,109.143852 C65.5991877,110.233421 69.7471609,116.236878 68.6237515,122.557825 C67.4931407,128.893203 61.4800199,133.150462 55.2076507,132.060893 M112.940812,29.9876988 C102.506067,28.1621284 92.5970201,34.8149974 89.9253221,44.9819089 L89.8245033,44.9530461 L80.0018723,80.9593545 L54.1058453,80.9593545 L54.1058453,89.7480686 L77.6110267,89.7480686 L72.7645233,107.513105 C69.8191743,103.955768 65.7216105,101.336472 60.8391004,100.48502 C49.8354493,98.5656455 39.3358922,106.005025 37.3627244,117.095545 C35.3751539,128.214928 42.7061204,138.793134 53.7241742,140.719724 C64.281342,142.559726 74.3056106,135.740896 76.8404831,125.379161 L76.9196978,125.400808 L86.6487113,89.7480686 L112.559141,89.7480686 L112.559141,80.9593545 L89.039557,80.9593545 L93.8860604,63.1726711 C96.8386107,66.7372235 100.936175,69.35652 105.833087,70.2224032 C116.829537,72.1345619 127.329094,64.702398 129.302262,53.6118778 C131.289832,42.4997105 123.958866,31.9142888 112.940812,29.9876988" id="Fill-200" fill="#343434"></path>
        </g>
      </g>
    </g>
  </g>
</svg>
